PathFileType	4	(X/Y/Z)	C:\Users\italobelli\Desktop\GitHub\PTbot_officialCBL\Personal_Results\SHRUG03_noisy2.trc
DataRate	CameraRate	NumFrames	NumMarkers	Units	OrigDataRate	OrigDataStartFrame	OrigNumFrames
110.888889	110.888889	29	9	m	110.888889	63	500
Frame#	Time		gu		centelbow		EpL		centpxt8		centijc7		ts		aa		ai		ij
			X1	Y1	Z1	X2	Y2	Z2	X3	Y3	Z3	X4	Y4	Z4	X5	Y5	Z5	X6	Y6	Z6	X7	Y7	Z7	X8	Y8	Z8	X9	Y9	Z9

63	0.55912	-0.077642	-0.0099687	0.16678	-0.12829	-0.2618	0.20134	-0.10719	-0.25749	0.22532	-0.046816	-0.15316	-0.008669	-0.046816	0.031938	-0.008669	-0.13647	0.033369	0.057795	-0.10287	0.028221	0.17218	-0.15996	-0.077441	0.065018	0	0	0
64	0.56814	-0.0775	-0.0095553	0.16671	-0.1285	-0.26136	0.20138	-0.10739	-0.25706	0.22535	-0.046816	-0.15316	-0.008669	-0.046816	0.031938	-0.008669	-0.13628	0.033755	0.05772	-0.10267	0.028726	0.17212	-0.15989	-0.077031	0.065109	0	0	0
65	0.57715	-0.077352	-0.0091297	0.16663	-0.12871	-0.2609	0.20142	-0.1076	-0.25662	0.22539	-0.046816	-0.15316	-0.008669	-0.046816	0.031938	-0.008669	-0.13609	0.034162	0.057643	-0.10245	0.029248	0.17205	-0.15982	-0.0766	0.065204	0	0	0
66	0.58617	-0.077198	-0.0086923	0.16654	-0.12892	-0.26042	0.20147	-0.10781	-0.25616	0.22543	-0.046816	-0.15316	-0.008669	-0.046816	0.031938	-0.008669	-0.13589	0.034588	0.057564	-0.10223	0.029788	0.17198	-0.15974	-0.076151	0.065302	0	0	0
67	0.59519	-0.077039	-0.0082434	0.16645	-0.12914	-0.25994	0.20152	-0.10802	-0.25568	0.22547	-0.046816	-0.15316	-0.008669	-0.046816	0.031938	-0.008669	-0.13568	0.035032	0.057483	-0.10201	0.030344	0.1719	-0.15966	-0.075684	0.065405	0	0	0
68	0.60421	-0.076875	-0.0077835	0.16636	-0.12935	-0.25944	0.20157	-0.10823	-0.25519	0.22552	-0.046816	-0.15316	-0.008669	-0.046816	0.031938	-0.008669	-0.13547	0.035492	0.0574	-0.10177	0.030915	0.17182	-0.15958	-0.0752	0.065511	0	0	0
69	0.61323	-0.076706	-0.007313	0.16627	-0.12957	-0.25893	0.20163	-0.10844	-0.25469	0.22557	-0.046816	-0.15316	-0.008669	-0.046816	0.031938	-0.008669	-0.13524	0.035969	0.057315	-0.10153	0.031502	0.17174	-0.15949	-0.074701	0.065621	0	0	0
70	0.62224	-0.076532	-0.0068323	0.16617	-0.12979	-0.2584	0.20169	-0.10865	-0.25418	0.22563	-0.046816	-0.15316	-0.008669	-0.046816	0.031938	-0.008669	-0.13501	0.03646	0.057228	-0.10128	0.032102	0.17166	-0.1594	-0.074187	0.065735	0	0	0
71	0.63126	-0.076355	-0.0063418	0.16607	-0.13002	-0.25787	0.20175	-0.10887	-0.25365	0.22569	-0.046816	-0.15316	-0.008669	-0.046816	0.031938	-0.008669	-0.13478	0.036964	0.057139	-0.10102	0.032715	0.17157	-0.15931	-0.07366	0.065853	0	0	0
72	0.64028	-0.076173	-0.005842	0.16596	-0.13024	-0.25732	0.20182	-0.10908	-0.25311	0.22575	-0.046816	-0.15316	-0.008669	-0.046816	0.031938	-0.008669	-0.13453	0.03748	0.057049	-0.10076	0.033341	0.17148	-0.15922	-0.073121	0.065974	0	0	0
73	0.6493	-0.075988	-0.0053332	0.16586	-0.13046	-0.25677	0.2019	-0.1093	-0.25257	0.22582	-0.046816	-0.15316	-0.008669	-0.046816	0.031938	-0.008669	-0.13429	0.038007	0.056957	-0.10049	0.03398	0.17139	-0.15912	-0.07257	0.066098	0	0	0
74	0.65832	-0.075799	-0.0048158	0.16575	-0.13068	-0.2562	0.20197	-0.10951	-0.25201	0.22589	-0.046816	-0.15316	-0.008669	-0.046816	0.031938	-0.008669	-0.13403	0.038544	0.056863	-0.10021	0.034629	0.17129	-0.15903	-0.072009	0.066226	0	0	0
75	0.66733	-0.075607	-0.0042903	0.16564	-0.13091	-0.25563	0.20206	-0.10972	-0.25143	0.22596	-0.046816	-0.15316	-0.008669	-0.046816	0.031938	-0.008669	-0.13378	0.039089	0.056768	-0.099936	0.035289	0.1712	-0.15893	-0.071439	0.066357	0	0	0
76	0.67635	-0.075412	-0.0037571	0.16553	-0.13113	-0.25504	0.20214	-0.10994	-0.25085	0.22604	-0.046816	-0.15316	-0.008669	-0.046816	0.031938	-0.008669	-0.13352	0.039642	0.056672	-0.099655	0.035958	0.1711	-0.15883	-0.070861	0.066491	0	0	0
77	0.68537	-0.075215	-0.0032166	0.16542	-0.13135	-0.25445	0.20223	-0.11015	-0.25026	0.22612	-0.046816	-0.15316	-0.008669	-0.046816	0.031938	-0.008669	-0.13326	0.040202	0.056574	-0.099369	0.036637	0.171	-0.15872	-0.070275	0.066629	0	0	0
78	0.69439	-0.075016	-0.0026692	0.16531	-0.13157	-0.25385	0.20232	-0.11036	-0.24966	0.2262	-0.046816	-0.15316	-0.008669	-0.046816	0.031938	-0.008669	-0.13299	0.040766	0.056475	-0.099081	0.037323	0.17089	-0.15861	-0.069684	0.066769	0	0	0
79	0.70341	-0.074814	-0.0021153	0.16519	-0.13179	-0.25324	0.20241	-0.11057	-0.24906	0.22629	-0.046816	-0.15316	-0.008669	-0.046816	0.031938	-0.008669	-0.13272	0.041334	0.056375	-0.098789	0.038018	0.17079	-0.15851	-0.069088	0.066912	0	0	0
80	0.71242	-0.074611	-0.0015553	0.16508	-0.13201	-0.25262	0.20251	-0.11078	-0.24844	0.22638	-0.046816	-0.15316	-0.008669	-0.046816	0.031938	-0.008669	-0.13246	0.041905	0.056274	-0.098496	0.038719	0.17068	-0.1584	-0.068488	0.067058	0	0	0
81	0.72144	-0.074406	-0.00098966	0.16496	-0.13223	-0.25199	0.20261	-0.11099	-0.24782	0.22647	-0.046816	-0.15316	-0.008669	-0.046816	0.031938	-0.008669	-0.13219	0.042478	0.056171	-0.098201	0.039427	0.17057	-0.15828	-0.067885	0.067207	0	0	0
82	0.73046	-0.0742	-0.00041876	0.16484	-0.13245	-0.25136	0.20272	-0.11119	-0.24718	0.22657	-0.046816	-0.15316	-0.008669	-0.046816	0.031938	-0.008669	-0.13192	0.043051	0.056068	-0.097905	0.04014	0.17046	-0.15817	-0.067281	0.067359	0	0	0
83	0.73948	-0.073994	0.00015697	0.16473	-0.13266	-0.25073	0.20283	-0.1114	-0.24655	0.22666	-0.046816	-0.15316	-0.008669	-0.046816	0.031938	-0.008669	-0.13165	0.043623	0.055965	-0.097608	0.040858	0.17034	-0.15806	-0.066676	0.067513	0	0	0
84	0.7485	-0.073786	0.00073713	0.16461	-0.13287	-0.25008	0.20294	-0.1116	-0.2459	0.22677	-0.046816	-0.15316	-0.008669	-0.046816	0.031938	-0.008669	-0.13138	0.044193	0.05586	-0.097311	0.04158	0.17023	-0.15794	-0.066071	0.06767	0	0	0
85	0.75752	-0.073579	0.0013213	0.16449	-0.13308	-0.24943	0.20305	-0.11179	-0.24525	0.22687	-0.046816	-0.15316	-0.008669	-0.046816	0.031938	-0.008669	-0.13112	0.04476	0.055755	-0.097014	0.042305	0.17011	-0.15782	-0.065468	0.067829	0	0	0
86	0.76653	-0.073371	0.0019091	0.16438	-0.13329	-0.24878	0.20317	-0.11199	-0.24459	0.22698	-0.046816	-0.15316	-0.008669	-0.046816	0.031938	-0.008669	-0.13086	0.045323	0.055649	-0.096718	0.043033	0.16999	-0.1577	-0.064868	0.067991	0	0	0
87	0.77555	-0.073164	0.0025001	0.16426	-0.13349	-0.24813	0.20329	-0.11218	-0.24393	0.22709	-0.046816	-0.15316	-0.008669	-0.046816	0.031938	-0.008669	-0.13059	0.04588	0.055542	-0.096423	0.043762	0.16987	-0.15758	-0.064271	0.068155	0	0	0
88	0.78457	-0.072957	0.0030938	0.16415	-0.13369	-0.24746	0.20342	-0.11237	-0.24326	0.2272	-0.046816	-0.15316	-0.008669	-0.046816	0.031938	-0.008669	-0.13034	0.046431	0.055435	-0.09613	0.044493	0.16975	-0.15746	-0.063679	0.068321	0	0	0
89	0.79359	-0.072751	0.0036899	0.16403	-0.13389	-0.2468	0.20354	-0.11255	-0.24259	0.22731	-0.046816	-0.15316	-0.008669	-0.046816	0.031938	-0.008669	-0.13008	0.046974	0.055328	-0.095839	0.045225	0.16963	-0.15733	-0.063093	0.068489	0	0	0
90	0.80261	-0.072546	0.004288	0.16392	-0.13408	-0.24613	0.20367	-0.11274	-0.24192	0.22743	-0.046816	-0.15316	-0.008669	-0.046816	0.031938	-0.008669	-0.12983	0.047508	0.055221	-0.09555	0.045956	0.16951	-0.15721	-0.062513	0.068659	0	0	0
91	0.81162	-0.072342	0.0048876	0.16381	-0.13427	-0.24546	0.2038	-0.11291	-0.24124	0.22755	-0.046816	-0.15316	-0.008669	-0.046816	0.031938	-0.008669	-0.12959	0.048032	0.055113	-0.095265	0.046686	0.16938	-0.15708	-0.061942	0.068831	0	0	0
